<?xml version="1.0" encoding="UTF-8"?>
<svg width="16px" height="16px" viewBox="0 0 16 16" version="1.1" xmlns="http://www.w3.org/2000/svg" xmlns:xlink="http://www.w3.org/1999/xlink">
    <title>切片</title>
    <defs>
        <filter color-interpolation-filters="auto" id="filter-1">
            <feColorMatrix in="SourceGraphic" type="matrix" values="0 0 0 0 1.000000 0 0 0 0 1.000000 0 0 0 0 1.000000 0 0 0 0.300000 0"></feColorMatrix>
        </filter>
    </defs>
    <g id="页面-1" stroke="none" stroke-width="1" fill="none" fill-rule="evenodd">
        <g id="Icon/help" transform="translate(-671.000000, -163.000000)" filter="url(#filter-1)">
            <g transform="translate(671.000000, 163.000000)">
                <g id="Icon---向下" fill="#000000" fill-rule="nonzero" opacity="0">
                    <rect id="矩形" x="0" y="0" width="16" height="16"></rect>
                </g>
                <g id="帮助" transform="translate(1.000000, 1.000000)" fill-rule="nonzero">
                    <rect id="矩形" fill="#000000" opacity="0" x="0" y="0" width="14" height="14"></rect>
                    <path d="M6.99088086,0.865880859 C3.60813086,0.865880859 0.865880859,3.60813086 0.865880859,6.99088086 C0.865880859,10.3736309 3.60813086,13.1158809 6.99088086,13.1158809 C10.3736309,13.1158809 13.1158809,10.3736309 13.1158809,6.99088086 C13.1158809,3.60813086 10.3736309,0.865880859 6.99088086,0.865880859 Z M10.7031914,10.7031914 C10.2207656,11.1856309 9.6592207,11.5642871 9.03415625,11.8286738 C8.38747656,12.1021934 7.70001367,12.2408809 6.99088086,12.2408809 C6.28174805,12.2408809 5.59429883,12.1021934 4.94760547,11.8286738 C4.32254102,11.5643008 3.76099609,11.1856309 3.27857031,10.7031914 C2.79613086,10.2207656 2.41747461,9.6592207 2.15308789,9.03415625 C1.87956836,8.38747656 1.74088086,7.70001367 1.74088086,6.99088086 C1.74088086,6.28174805 1.87956836,5.59429883 2.15308789,4.94760547 C2.41746094,4.32254102 2.79613086,3.76099609 3.27857031,3.27857031 C3.76099609,2.79613086 4.32254102,2.41747461 4.94760547,2.15308789 C5.59428516,1.87956836 6.28174805,1.74088086 6.99088086,1.74088086 C7.70001367,1.74088086 8.38746289,1.87956836 9.03415625,2.15308789 C9.6592207,2.41746094 10.2207656,2.79613086 10.7031914,3.27857031 C11.1856309,3.76099609 11.5642871,4.32254102 11.8286738,4.94760547 C12.1021934,5.59428516 12.2408809,6.28174805 12.2408809,6.99088086 C12.2408809,7.70001367 12.1021934,8.38746289 11.8286738,9.03415625 C11.5643008,9.6592207 11.1856309,10.2207656 10.7031914,10.7031914 Z" id="形状" fill="#525866"></path>
                    <path d="M8.77795898,3.90508398 C8.41590039,3.36132617 7.78494336,3.06185742 7.00136719,3.06185742 C6.38025391,3.06185742 5.88396484,3.26608789 5.52629492,3.66888867 C5.22990234,4.0026875 5.04835352,4.45335352 4.98667969,5.00837695 C4.94357227,5.39635742 4.9764668,5.69419922 4.98036328,5.726875 C5.00895117,5.96680273 5.22673047,6.13817969 5.46653516,6.10956445 C5.70646289,6.08099023 5.87779883,5.86332031 5.84922461,5.62339258 C5.84896484,5.62119141 5.824,5.39594727 5.85633398,5.10500977 C5.88473047,4.84950977 5.96402734,4.49376758 6.18058984,4.249875 C6.36760742,4.03924609 6.6360957,3.93685742 7.00136719,3.93685742 C7.48975391,3.93685742 7.85223633,4.09356445 8.0496582,4.39003906 C8.25840039,4.70353516 8.24400391,5.10185156 8.13713086,5.3575293 C8.07594922,5.50387305 7.7856543,5.77145898 7.55238477,5.98646289 C7.06123633,6.43915234 6.55338086,6.90725 6.55338086,7.47291016 L6.55338086,8.31314258 C6.55338086,8.55476562 6.74925781,8.75064258 6.99088086,8.75064258 C7.23250391,8.75064258 7.42838086,8.55476562 7.42838086,8.31314258 L7.42838086,7.47291016 C7.42838086,7.46355859 7.4332207,7.37579883 7.60074219,7.1731543 C7.74426953,6.99957617 7.94818555,6.81161523 8.14538867,6.62984766 C8.48692578,6.31505273 8.80951367,6.01770313 8.94441406,5.69497852 C9.05820508,5.42274414 9.10620703,5.11639844 9.08322461,4.80905469 C9.05869727,4.48073828 8.95312305,4.1681582 8.77795898,3.90508398 L8.77795898,3.90508398 Z" id="路径" fill="#525866"></path>
                    <path d="M6.45447852,9.61084961 C6.45447852,9.91288033 6.69932279,10.1577246 7.00135352,10.1577246 C7.30338424,10.1577246 7.54822852,9.91288033 7.54822852,9.61084961 C7.54822852,9.30881889 7.30338424,9.06397461 7.00135352,9.06397461 C6.69932279,9.06397461 6.45447852,9.30881889 6.45447852,9.61084961 L6.45447852,9.61084961 Z" id="路径" fill="#525866"></path>
                </g>
            </g>
        </g>
    </g>
</svg>