<?xml version="1.0" encoding="UTF-8"?>
<svg width="114px" height="36px" viewBox="0 0 114 36" version="1.1" xmlns="http://www.w3.org/2000/svg" xmlns:xlink="http://www.w3.org/1999/xlink">
    <title>形状结合</title>
    <defs>
        <rect id="path-1" x="0" y="0" width="114" height="36"></rect>
    </defs>
    <g id="页面-1" stroke="none" stroke-width="1" fill="none" fill-rule="evenodd">
        <g id="平台/我的案例" transform="translate(-20.000000, -12.000000)">
            <g id="形状结合" transform="translate(20.000000, 12.000000)">
                <mask id="mask-2" fill="white">
                    <use xlink:href="#path-1"></use>
                </mask>
                <g id="蒙版"></g>
                <path d="M89.9288096,23.4013073 C90.0453123,23.4013073 90.1636949,23.425172 90.2769075,23.4757158 C90.7079615,23.6676299 90.9012513,24.1721298 90.7086077,24.6023386 C89.602567,27.0738843 87.8781163,29.1662927 85.7219654,30.6534653 C83.4963124,32.188719 80.9142777,33 78.2546333,33 C75.5976326,33 73.0177129,32.1900676 70.7935875,30.6577457 C68.6388466,29.1733289 66.9145722,27.0842628 65.8071801,24.6165284 C65.6141841,24.1865542 65.8071214,23.6819369 66.2378228,23.4894365 C66.6685242,23.2968188 67.1741915,23.489202 67.3669526,23.9191176 C69.3774605,28.3992815 73.651163,31.2940583 78.2546333,31.2940583 C82.8636261,31.2940583 87.1397374,28.3942388 89.1480715,23.9066282 C89.2900132,23.5894101 89.6020382,23.4013073 89.9288096,23.4013073 Z M38.4400324,22.4945794 C38.4320424,22.8899001 38.3322249,24.0112457 37.4929711,24.882804 C36.8479471,25.5521871 35.9541726,25.8916281 34.8366755,25.8916281 L34.8366755,25.8916281 L34.8366755,24.0551637 C35.4287651,24.0551637 35.8731554,23.9083404 36.1576851,23.6188568 C36.5311633,23.23884 36.5890327,22.682389 36.5978453,22.4945794 L36.5978453,22.4945794 Z M50.3797502,10.3484844 L50.3805727,11.5511574 C50.3805727,11.9011528 50.0965131,12.185066 49.7456539,12.1853005 L49.7456539,12.1853005 L46.1825999,12.1874701 L46.1825999,14.9976358 L50.4700501,14.9976358 L50.4700501,16.0648022 C50.4700501,16.4070577 50.1742403,16.684521 49.8093396,16.684521 L49.8093396,16.684521 L49.2507967,16.684521 L49.2507967,25.8353556 L47.2698404,25.8353556 L47.2698404,16.684521 L46.1825999,16.684521 L46.1825667,23.5916582 C46.1774694,23.7963215 46.1144974,24.5139594 45.5376346,25.1077475 C45.0407799,25.6192251 44.3333039,25.8813845 43.4352994,25.8900625 L43.4352994,25.8900625 L43.4352994,24.0534809 C44.0144051,24.0445096 44.3295439,23.8679581 44.3425278,23.539306 L44.3425278,23.539306 L44.3425278,11.2698242 C44.3425278,10.7628616 44.754194,10.3519439 45.2619763,10.351592 L45.2619763,10.351592 L50.3797502,10.3484844 Z M41.3073782,22.4966845 C41.3140758,22.8209389 41.4269359,23.8000933 42.5414955,24.0097153 C42.6212203,24.0233188 42.8486442,24.0438998 42.9468754,24.0416717 L42.9468754,24.0416717 L42.9468754,25.8787224 L42.821264,25.8763165 C42.5672451,25.8670575 42.3007519,25.833305 42.2007415,25.8144579 C40.0354842,25.4073515 39.4731812,23.5423903 39.4677174,22.4966845 L39.4677174,22.4966845 Z M26.4279338,19.9332394 L26.4279338,20.6394455 L32.9759349,20.6394455 L32.9759349,21.735226 C32.9759349,22.0994112 32.6800076,22.3946411 32.3152244,22.3946411 L32.3152244,22.3946411 L27.2768815,22.3946411 C27.9584484,23.0802075 29.5164584,24.0173203 32.9552546,24.0397777 L32.9552546,24.0397777 L32.9432695,25.8762421 C30.1091355,25.8577719 27.9347719,25.2769871 26.4807507,24.1500712 C25.8253278,23.642053 25.4513796,23.118262 25.2421683,22.7306812 C25.032957,23.118262 24.6590676,23.642053 24.0035859,24.1500712 C22.5495647,25.2769871 20.3752599,25.8577719 17.5411259,25.8762421 L17.5411259,25.8762421 L17.5291407,24.0397777 C20.9678783,24.0173203 22.525947,23.0802075 23.2075139,22.3946411 L23.2075139,22.3946411 L18.1469632,22.3946411 C17.7822388,22.3946411 17.4863115,22.0994112 17.4863115,21.735226 L17.4863115,21.735226 L17.4863115,20.6394455 L24.0042322,20.6394455 L24.0042322,19.9332394 L26.4279338,19.9332394 Z M9.02246753,18.3443517 L9.02246753,20.597011 L15.16315,20.597011 L15.16315,21.7231061 C15.16315,22.0872326 14.8673402,22.3824625 14.5024395,22.3824625 L14.5024395,22.3824625 L9.02246753,22.3824625 L9.02246753,25.7699535 L7.04321503,25.7699535 L7.04321503,18.3443517 L9.02246753,18.3443517 Z M58.4076346,14.1143621 C59.8444418,14.1143621 61.1034694,14.8641345 61.8027203,15.9876496 L61.8027203,15.9876496 L60.6335813,16.7339625 C60.1977098,15.998204 59.3873026,15.5037893 58.4595702,15.5037893 C57.0704685,15.5037893 55.9445113,16.6120006 55.9445113,17.9789704 C55.9445113,19.3459402 57.0704685,20.4540342 58.4595702,20.4540342 C59.3610998,20.4540342 60.151473,19.9872368 60.5956283,19.285956 L60.5956283,19.285956 L61.819758,20.0448755 C61.1239147,21.1837532 59.8562507,21.9457803 58.4076346,21.9457803 C56.2101232,21.9457803 54.4287431,20.1925784 54.4287431,18.0301005 C54.4287431,15.8675054 56.2101232,14.1143621 58.4076346,14.1143621 Z M66.2008157,14.0541904 C68.3778819,14.0541904 70.1426943,15.8188849 70.1426943,17.9960216 C70.1426943,20.1729238 68.3778819,21.9377355 66.2008157,21.9377355 C64.0238084,21.9377355 62.2590547,20.1729238 62.2590547,17.9960216 C62.2590547,15.8188849 64.0238084,14.0541904 66.2008157,14.0541904 Z M73.6718609,14.082611 C75.5502384,14.082611 76.5748507,15.1356462 76.5748507,15.1356462 C76.5748507,15.1356462 75.8064503,16.0178762 75.578615,16.3025516 C74.184167,15.1925227 72.4194721,15.3633866 72.4194721,16.2741134 C72.4194721,17.4694571 76.7455803,16.8148501 76.7455803,19.5470307 C76.7455803,20.2871282 76.2902036,21.9377179 73.6718609,21.9377179 C73.1026253,21.9377179 71.5942597,21.8807829 70.4557885,20.7139947 C70.5885651,20.5242502 70.9616974,20.0435432 71.1956993,19.7441546 L71.3163689,19.5900579 C71.36532,19.5276669 71.3949186,19.4900956 71.3949186,19.4900956 C71.3949186,19.4900956 72.3911543,20.4861957 73.7571082,20.4861957 C74.4372651,20.4861957 75.0664264,20.2268508 75.0664264,19.6608422 C75.0664264,18.5509305 70.6833888,18.9494761 70.6833888,16.5017365 C70.6833888,15.5340159 71.3095538,14.082611 73.6718609,14.082611 Z M99.1683156,14.1311964 C100.564761,14.1311964 101.696711,15.263155 101.696711,16.6595012 C101.696711,18.0556715 100.564761,19.1875715 99.1683156,19.1875715 L99.1683156,19.1875715 L96.8175237,19.1875715 L96.8175237,21.9377531 L95.8712261,21.9377531 L95.8712261,14.1311964 Z M90.2786818,14.0541904 C92.4557479,14.0541904 94.2205604,15.8188849 94.2205604,17.9960216 C94.2205604,20.1729238 92.4557479,21.9377355 90.2786818,21.9377355 C88.1016744,21.9377355 86.3369208,20.1729238 86.3369208,17.9960216 C86.3369208,15.8188849 88.1016744,14.0541904 90.2786818,14.0541904 Z M37.2695657,10.1083836 L37.2695657,11.5260732 L40.3133222,11.5260732 L40.3133222,10.1083836 L42.342689,10.1083836 L42.342689,11.5260732 L43.2897504,11.5260732 L43.2897504,12.6892259 C43.2897504,13.0534111 42.9938818,13.3485823 42.62904,13.3485823 L42.62904,13.3485823 L42.342689,13.3485823 L42.342689,20.0995238 L43.15433,20.0995238 L43.15433,21.2626766 C43.15433,21.6268618 42.8585202,21.9220916 42.4936196,21.9220916 L42.4936196,21.9220916 L34.8864608,21.9220916 C34.5215602,21.9220916 34.2257504,21.6268618 34.2257504,21.2626766 L34.2257504,21.2626766 L34.2257504,20.0995238 L35.2407863,20.0995238 L35.2407863,13.4236357 L35.2407863,13.4236357 L35.1572428,13.3401974 C34.7922834,13.3401974 34.4965324,13.0449676 34.4965324,12.680841 L34.4965324,12.680841 L34.4965324,11.5260732 L35.2407863,11.5260732 L35.2407863,10.1083836 L37.2695657,10.1083836 Z M103.313248,14.1139869 L103.313248,21.9205436 L102.337458,21.9205436 L102.337458,14.1139869 L103.313248,14.1139869 Z M107.00385,16.1217608 C107.779829,16.1217608 108.484427,16.4277795 109.003372,16.9255364 L109.003372,16.9255364 L109.003372,16.1856148 L109.970996,16.1856148 L109.970996,21.8210157 L109.003372,21.8210157 L109.003372,21.0954598 C108.484427,21.5932167 107.779829,21.8992355 107.00385,21.8992355 C105.408592,21.8992355 104.115195,20.6058532 104.115195,19.0104981 C104.115195,17.4150257 105.408592,16.1217608 107.00385,16.1217608 Z M79.6676758,14.1387604 L81.557686,17.2207604 L83.389533,14.1387604 L85.5702417,14.1387604 L85.5702417,21.8729022 L83.9128255,21.8729022 L83.9128255,16.4066062 L81.8774661,19.7503552 L81.1796252,19.7503552 L79.1153017,16.4066062 L79.0861614,21.8729022 L77.4869084,21.8729022 L77.4869084,14.1387604 L79.6676758,14.1387604 Z M111.918517,14.7430287 L111.918517,16.2799828 L113,16.2799828 L113,17.1052191 L111.918517,17.1052191 L111.918517,20.5490002 C111.918517,20.8621725 112.203164,21.0044223 112.487753,21.0044223 L112.487753,21.0044223 L113,21.0044223 L113,21.858214 L111.946835,21.858214 C111.605435,21.858214 110.979211,21.4312888 110.979211,20.5490002 L110.979211,20.5490002 L110.979211,14.7430287 L111.918517,14.7430287 Z M107.021769,17.0751156 C105.943106,17.0751156 105.068602,17.9416899 105.068602,19.0104981 C105.068602,20.0793063 105.943106,20.9457633 107.021769,20.9457633 C108.100432,20.9457633 108.974878,20.0793063 108.974878,19.0104981 C108.974878,17.9416899 108.100432,17.0751156 107.021769,17.0751156 Z M66.2008157,15.5055953 C64.8254617,15.5055953 63.7104908,16.6206669 63.7104908,17.9960216 C63.7104908,19.3713176 64.8254617,20.4862133 66.2008157,20.4862133 C67.5761697,20.4862133 68.6911406,19.3713176 68.6911406,17.9960216 C68.6911406,16.6206669 67.5761697,15.5055953 66.2008157,15.5055953 Z M90.2786818,15.5055953 C88.9033278,15.5055953 87.7883569,16.6206669 87.7883569,17.9960216 C87.7883569,19.3713176 88.9033278,20.4862133 90.2786818,20.4862133 C91.6540358,20.4862133 92.7691242,19.3713176 92.7691242,17.9960216 C92.7691242,16.6206669 91.6540358,15.5055953 90.2786818,15.5055953 Z M40.0227412,18.8842441 L37.5601466,18.8842441 C37.3996397,18.8842441 37.2695657,19.0141218 37.2695657,19.174314 L37.2695657,19.174314 L37.2695657,19.8095126 C37.2695657,19.9696462 37.3996397,20.0995238 37.5601466,20.0995238 L37.5601466,20.0995238 L40.0227412,20.0995238 C40.1832481,20.0995238 40.3133222,19.9696462 40.3133222,19.8095126 L40.3133222,19.8095126 L40.3133222,19.174314 C40.3133222,19.0141218 40.1832481,18.8842441 40.0227412,18.8842441 L40.0227412,18.8842441 Z M26.4922658,10.1083719 L26.4922658,11.2314766 L30.5224467,11.2314766 C31.6009334,11.2314766 32.1403236,11.7476451 32.1403236,12.7788679 L32.1403236,12.7788679 L32.1403236,19.7754336 C32.1319222,19.8579338 32.1115357,19.9302314 32.0849217,19.9974863 L32.0849217,19.9974863 L30.2430283,19.9974863 C30.2166721,19.9339677 30.1887962,14.1516536 30.1857802,13.5093703 L30.1855114,13.4515932 C30.0948003,13.2729307 29.9830565,13.1604092 29.8485761,13.1153185 L29.8485761,13.1153185 L20.6136703,13.1153185 C20.4336581,13.1604092 20.3207392,13.2729307 20.2763825,13.4515932 L20.2763825,13.4515932 L20.2763825,19.7754336 C20.2683336,19.8579338 20.2476534,19.9302314 20.2212743,19.9974863 L20.2212743,19.9974863 L18.3793809,19.9974863 C18.3512394,19.9302314 18.3299716,19.8579338 18.321864,19.7754336 L18.321864,19.7754336 L18.321864,12.7116716 C18.321864,11.7255981 18.8379302,11.2314766 19.8720601,11.2314766 L19.8720601,11.2314766 L24.0643342,11.2314766 L24.0643342,10.1083719 L26.4922658,10.1083719 Z M26.2210608,13.3485823 L26.2210608,15.7114177 L29.5937038,15.7114177 L29.5937038,16.6047298 C29.5937038,16.968915 29.298129,17.2641448 28.9329934,17.2641448 L28.9329934,17.2641448 L27.7917609,17.2641448 C27.8124999,17.5600196 27.9466865,18.122041 28.6541625,18.2552609 C28.713207,18.2651117 28.8970967,18.2818814 28.9569636,18.2781288 L28.9569636,18.2781288 L29.0594249,19.8051149 C29.0219419,19.8076362 28.9821089,19.8088089 28.9413947,19.8088089 C28.7123257,19.8088089 28.4484175,19.7738622 28.3699266,19.7590274 C26.7440008,19.4532432 26.2862741,18.0843384 26.2566637,17.2641448 L26.2566637,17.2641448 L26.2210608,17.2641448 L26.2210608,19.6269216 L24.2225381,19.6269216 L24.2345232,17.2641448 L24.2096717,17.2641448 C24.192164,17.6191242 24.0824764,18.4114073 23.4798117,19.0373414 C23.13659,19.3936108 22.5022587,19.8184252 21.4294708,19.8184252 L21.4294708,19.8184252 L21.4294708,18.2879795 C21.8529459,18.2879795 22.1686134,18.1856019 22.3674846,17.9835439 C22.5893272,17.7583836 22.6533067,17.4382923 22.671872,17.2641448 L22.671872,17.2641448 L21.5291707,17.2641448 C21.1643876,17.2641448 20.8685191,16.968915 20.8685191,16.6047298 L20.8685191,16.6047298 L20.8685191,15.7114177 L24.2321144,15.7114177 L24.2321144,13.3485823 L26.2210608,13.3485823 Z M99.138764,15.0183517 L96.8175237,15.0183517 L96.8175237,18.3006507 L99.138764,18.3006507 C100.04517,18.3006507 100.780082,17.5658304 100.780082,16.6595012 C100.780082,15.7530548 100.04517,15.0183517 99.138764,15.0183517 L99.138764,15.0183517 Z M9.02246753,10.1083719 L9.02246753,12.2568945 L15.6100078,12.2568945 L15.6100078,13.3645194 C15.6100078,13.7287046 15.3142568,14.0239344 14.9493562,14.0239344 L14.9493562,14.0239344 L9.02246753,14.0239344 L9.02246753,16.0186561 L16.5570105,16.0186561 L16.5570105,17.1446925 C16.5570105,17.5088777 16.2612007,17.8041075 15.8963,17.8041075 L15.8963,17.8041075 L1.66071043,17.8041075 C1.2958098,17.8041075 1,17.5088777 1,17.1446925 L1,17.1446925 L1,16.0186561 L7.04321503,16.0186561 L7.04321503,10.1083719 L9.02246753,10.1083719 Z M40.0227412,16.1165891 L37.5601466,16.1165891 C37.3996397,16.1165891 37.2695657,16.2464668 37.2695657,16.4066004 L37.2695657,16.4066004 L37.2695657,17.0415057 C37.2695657,17.201698 37.3996397,17.331517 37.5601466,17.331517 L37.5601466,17.331517 L40.0227412,17.331517 C40.1832481,17.331517 40.3133222,17.201698 40.3133222,17.0415057 L40.3133222,17.0415057 L40.3133222,16.4066004 C40.3133222,16.2464668 40.1832481,16.1165891 40.0227412,16.1165891 L40.0227412,16.1165891 Z M23.2107863,13.7350842 C23.1898711,13.8905855 23.2107863,14.9976241 23.8912957,15.381804 L23.8912957,15.381804 L22.3099617,15.381804 C21.7245697,14.7976183 21.7121733,14.1961352 21.746895,13.7350842 L21.746895,13.7350842 Z M28.6481523,13.7351076 C28.682874,14.1961587 28.6704776,14.7975832 28.0850856,15.3818274 L28.0850856,15.3818274 L26.5037516,15.3818274 C27.1842022,14.9976475 27.2051762,13.8905504 27.1842022,13.7351076 L27.1842022,13.7351076 Z M40.0227412,13.3485823 L37.5601466,13.3485823 C37.3996397,13.3485823 37.2695657,13.4784599 37.2695657,13.6386522 L37.2695657,13.6386522 L37.2695657,14.2738507 C37.2695657,14.434043 37.3996397,14.563862 37.5601466,14.563862 L37.5601466,14.563862 L40.0227412,14.563862 C40.1832481,14.563862 40.3133222,14.434043 40.3133222,14.2738507 L40.3133222,14.2738507 L40.3133222,13.6386522 C40.3133222,13.4784599 40.1832481,13.3485823 40.0227412,13.3485823 L40.0227412,13.3485823 Z M78.2546333,3 C80.9142777,3 83.4963124,3.81122237 85.7219654,5.34647609 C87.8781163,6.83370733 89.602567,8.92611573 90.7086077,11.3976614 C90.9012513,11.8278115 90.7079615,12.3323115 90.2769075,12.5242842 C90.1636949,12.5747694 90.0453123,12.5986927 89.9288096,12.5986927 C89.6020382,12.5986927 89.2900132,12.4105899 89.1480715,12.0933718 C87.1397374,7.60576117 82.8636261,4.70594171 78.2546333,4.70594171 C73.651163,4.70594171 69.3774605,7.60071852 67.3669526,12.0808824 C67.1741915,12.5107394 66.6685242,12.7031812 66.2378228,12.5105635 C65.8071214,12.3180044 65.6141841,11.8134458 65.8071801,11.3834716 C66.9145722,8.91573724 68.6388466,6.82667107 70.7935875,5.34225434 C73.0177129,3.80993239 75.5976326,3 78.2546333,3 Z" fill="#FFFFFF" mask="url(#mask-2)"></path>
            </g>
        </g>
    </g>
</svg>